<svg class="cat-logo" xmlns="http://www.w3.org/2000/svg" viewBox="46.5313 112.616 925.6 842.3">
	<path fill="#141311ff" d="m431.1535 442.8765c-.5333-4.2112.0088-7.864 1.3662-11.5056 2.7167-7.2882 4.5486-15.0644 5.3899-22.5492 1.0816-9.6219 2.3991-19.4818 1.4297-29.2863-1.4663-14.8319-5.8676-19.0346-20.1162-11.4336-6.9995 3.7339-11.6344 9.9782-17.228 15.2787-11.0786 10.4982-19.0842 23.2136-27.061 35.8188-5.9604 9.4189-9.7136 20.2198-16.2417 29.4653-2.0396 2.8886-1.112 5.9284 2.3981 6.4895 2.8388.4537 5.3715 1.5581 8.0811 2.1966 16.2839 3.8374 32.7385 6.2856 49.5027 6.9262 4.6503.1777 5.7284-1.4389 6.9559-5.3905 1.6305-5.2488 2.4696-10.8551 5.5233-16.0099ZM147.3005 642.0428c-.589 6.1117-2.3344 11.7526-1.0861 17.6855 1.9132.7332 3.6686.9149 5.3918-.021 3.5262-1.9151 7.302-3.0215 11.1726-4.0493 4.2886-1.1388 8.5419-2.6245 12.5698-4.4814 5.9662-2.7505 6.5564-7.6957 2.3534-12.8225-5.3311-6.5027-12.648-7.6191-20.1394-7.4334-6.6953.166-11.2545 5.505-10.2621 11.1221ZM583.7188 473.3686c3.848-8.8383 8.676-16.7451 9.6571-26.4485.7579-7.4975 3.189-15.2681 2.3906-22.492-1.1439-10.3513-2.3695-21.0313-7.2158-30.7546-1.8393-3.6901-4.2671-6.7877-7.2311-9.3031-4.1586-3.5292-8.5579-3.438-11.2155.5919-2.6465 4.0131-6.0389 7.4078-8.474 11.5797-5.2911 9.0646-6.1444 19.5629-9.7954 29.1723-2.8922 7.6124-3.8007 15.9577-6.3791 23.7152-3.4049 10.2444-7.313 20.3454-11.5056 30.297-3.6954 8.7715-10.378 15.8127-14.5471 24.4984-3.9022 8.1295-5.7476 15.4336-1.9549 23.8985 1.9397 4.3291 5.5731 6.2274 9.6304 4.0624 5.9981-3.2007 12.3824-5.8632 17.882-9.7691 8.214-5.8336 16.6091-11.3738 22.0927-20.6149 5.5402-9.3365 9.6811-19.5113 16.6657-28.4332ZM312.9337 860.7902c-7.0993-1.7982-13.6293-4.0899-20.0276-6.7847-.947-.3987-2.0728-.5916-2.7552.3088-.8057 1.063-.2062 1.9762.4846 3.0775 1.7168 2.7368 4.8366 1.7154 7.0852 3.0264 4.1994 2.448 8.9507 3.5039 13.6242 4.6724 1.3587.3397 2.7416.1559 3.4138-1.3104.6755-1.4739-.683-2.0005-1.825-2.99ZM450.5152 844.77c-8.378 2.5272-15.9961 4.781-23.5872 7.1224-3.9493 1.2181-8.3133.3101-11.9962 3.5685-1.7609 1.558-4.8464-.1181-6.6562-2.6804-5.9533-8.4289-8.9627-17.8932-10.8809-27.9069-2.0917-10.9197-3.01-21.9943-3.7479-33.0064-.7038-10.5032-.7976-21.3699 1.1705-31.6298 1.6384-8.5415 2.996-17.5729 7.7559-25.4379 1.5656-2.587 1.9143-5.9637 2.5808-9.0312 1.5634-7.1957 5.2772-13.3104 8.6869-19.7399 4.4909-8.4683 10.5615-15.4727 16.4935-22.7655 4.4136-5.426 2.4733-11.8742 1.8151-18.1602-.7154-6.8328-2.0834-14.2237-.2544-20.526 1.9581-6.747.5874-15.2026 8.3467-20.0971 4.5237-2.8536 11.0616-3.5862 15.009.1712 7.6195 7.2526 15.9521 13.7146 26.0227 16.8822 7.6801 2.4157 15.8629 3.2087 23.7913 4.87 3.8788.8126 7.647 2.1738 11.5366 2.9106 9.4952 1.7989 18.7776.9444 27.746-2.8063.885-.3702 1.7918-1.009 3.2059-.1942.331 2.6997.4291 5.6674-.6225 8.4426-4.3645 11.5183-5.7096 24.0866-11.4057 35.0643-6.3894 12.3137-11.2554 25.6118-21.348 35.7463-1.969 1.9773-4.2871 3.603-5.7705 6.0842-.8792 1.4707-2.2668 2.6318-4.1644 1.9558-1.9747-.7036-1.8094-2.5578-1.8652-4.2295-.3301-9.9004-.7147-19.7992-.9869-29.7011-.1985-7.2215-2.1928-8.4437-8.3533-4.9834-11.2564 6.3226-17.258 16.0416-21.9734 28.0971-4.5972 11.7536-6.2348 24.0556-9.7608 35.9326-3.3499 11.2841-5.8112 23.2728-5.5701 35.3896.0518 2.6059.8694 4.8626 3.5071 6.0892 7.1123 3.3074 14.2044 4.0745 21.3567.1135 1.1518-.638 2.3969-1.4513 3.6391-1.5277 9.4791-.5824 17.7787-5.0285 26.5804-7.831 2.0046-.6382 4.288-.724 6.41-.579 2.1242.145 3.6977 1.7076 2.3637 3.7566-2.648 4.0676-3.7053 9.25-8.5272 11.8738-2.5988 1.4141-4.2243 4.0727-6.2619 6.1833-4.8842 5.0593-10.7458 9.1065-17.4946 11.3877-3.0237 1.022-4.6385 3.6048-7.0924 5.235-5.9907 3.9796-13.3369 5.452-18.4795 11.2894-2.3487 2.666-6.9603 4.3048-11.2187 4.6676ZM656.1596 617.0274c3.4114-.6591 6.0223-1.026 9.0477-1.4512.5707 5.6797-1.9926 10.2823-3.5869 15.1891-2.2679 6.9798-4.6308 13.9119-6.1704 21.1735-2.7604 13.0183-3.7045 26.3505-7.4736 39.2023-2.8472 9.7082-2.9376 19.9525-4.026 29.9719-.5804 5.3425 5.485 11.6496 10.4656 13.4587 8.1087 2.9455 16.7409 3.6847 24.8563 6.4705 1.5855.5442 2.8645-.1038 4.2456-.7981 2.4339-1.2233 5.0138-1.7591 7.7034-.7707 2.0183.7416 4.2008 1.2025 4.3873 4.0553.1737 2.6584-.687 4.9464-3.1954 5.5881-9.8881 2.5294-11.8811 10.9884-14.7469 18.8984-2.2496 6.2089-4.4643 12.6644-4.2551 19.1251.3215 9.9285-2.9934 19.4299-2.111 29.4098.9498 10.742-2.9776 19.979-12.1538 26.1049-7.5616 5.0479-14.1687 11.419-22.4142 15.5255-10.8447 5.4009-22.5812 8.4039-33.7371 12.9582-2.5907 1.0578-6.0478 1.327-7.5087-1.8319-1.2195-2.637.3848-4.4544 2.8911-6.4229 5.507-4.3252 10.5524-9.3215 15.3292-14.4679 4.1357-4.4558 5.3846-10.5462 6.4815-16.2384 2.262-11.7372 2.9167-23.6808 2.9019-35.6583-.0024-1.9769-.4461-3.5955-1.2989-5.181-1.0582-1.9674-1.4327-4.0492-1.597-6.2265-.6868-9.1006-.7058-8.9596-10.1635-9.5776-4.7781-.3122-9.4954-1.7275-14.2891-.0019-1.2282.4422-2.866.2519-3.0123 2.0094-.4164 5.0043-4.0783 9.5141-2.2245 14.8739.2598.7516.2625 1.6948.0823 2.4801-1.9578 8.5362-.828 17.4103-2.8716 25.9321-2.559 10.6709-3.2532 22.1195-8.9082 31.5828-3.7717 6.3118-5.5945 14.6281-13.9637 17.7995-4.7494 1.7998-8.7748 3.577-14.1031 1.0052-4.0248-1.9425-9.1134-.9582-13.7182-1.4427-13.169-1.3856-25.4451-5.5127-37.5312-10.5121-3.3703-1.3942-6.762-2.7714-9.9999-4.4364-1.5883-.8168-3.1374-2.1849-2.8735-4.3204.2593-2.0979 2.088-2.9873 3.747-3.6717 4.0857-1.6856 8.5161-.8534 12.6933-.8462 3.5809.0061 7.2742.352 10.9147.3865 8.8747.0842 9.2672.0678 11.2044-8.3951 2.047-8.9424 4.5516-17.7614 6.0286-26.9001.8655-5.3552 2.7961-11.1004 3.7685-16.5609 1.4024-7.8757 3.1158-15.7175 4.4723-23.6099 2.545-14.8082 5.6113-29.5375 8.8942-44.2026 1.3483-6.0232 2.9409-12.0844 4.397-18.0484 1.518-6.2182 1.7824-13.0327 2.5692-19.5903.7496-6.2465 1.4491-12.501 2.0159-18.7661.1937-2.1412-.0845-3.8768-2.7329-5.1156-4.0931-1.9147-4.5155-6.4438-1.4477-10.0338 7.5876-8.8793 15.0559-17.8453 21.3244-27.7384 1.5135-2.3887 3.4431-4.6584 3.7729-7.5238.5728-4.9769 3.6973-5.9871 7.8094-5.2974 4.0832.6849 8.1112 1.712 12.1482 2.6537 2.2465.5239 4.3358 1.1534 6.8191.7343 3.6872-.6223 4.8738 1.7076 4.821 5.406-.1088 7.6409-2.3179 15.1465-1.1886 22.8646.4068 2.7797-1.6857 5.0545-1.6095 8.2945.2037 8.6601-.0684 17.4347-1.9029 26.0705-1.5917 7.4928.2171 15.2515-1.1855 22.864-.4326 2.3481 7.052 4.004 9.1506 1.8399 1.7984-1.8546 3.1918-3.8717 3.3692-6.9115.6851-11.7407 2.4304-23.4498 2.5268-35.181.0449-5.4715 2.8226-11.0005.0169-16.6416-.6553-1.3175 1.0788-3.6747 1.2865-5.5997.4942-4.5789 1.1734-9.0557.291-13.8164-1.2043-6.4978 1.6928-7.8023 8.3248-8.1042 9.0698-.4127 18.3006.3376 27.2431-2.0356M783.9382 295.6696c-3.2883-9.829-8.3354-18.1265-11.5148-27.087-3.3165-9.3472-7.4432-18.3177-11.6089-27.2029-4.5582-9.722-8.1514-19.8065-11.6506-29.8332-1.7445-4.999-4.0153-10.0425-4.9538-15.4577-1.2519-7.2242-3.3674-7.8649-9.1703-3.6128-2.3643 1.7325-4.639 3.7989-8.6793 3.3564 1.071-3.5856 2.0337-7.1231.5778-10.7146-.2188-.5398.7407-2.0155 1.4969-2.4213 7.9064-4.2428 12.1987-12.7677 19.6075-17.1883 8.0621-4.8103 13.9629-12.8257 23.4485-15.4206 2.0881-.5713 2.9689-2.9118 4.7029-4.2414 9.0153-6.9129 18.7541-12.7262 28.3696-18.6658 8.2235-5.0798 17.0231-9.2824 25.7835-13.416 5.1381-2.4243 9.6045-.9414 13.7263 3.8099 6.9549 8.0171 13.124 16.554 17.9733 26.0846 4.9505 9.7296 7.9405 19.9112 8.7043 30.7459.2197 3.117-.0805 6.2756-.2277 9.4111-.058 1.2329-.6436 2.2755-1.9424 2.6254-1.5214.4099-2.5901-.3447-3.3143-1.5927-.4122-.7104-.625-1.5334-.9698-2.2864-4.5848-10.0137-10.4226-19.2988-18.5836-26.6627-3.6654-3.3072-8.0249-6.618-13.3785-7.2474-6.0144-.7071-9.4135 2.2864-11.6669 8.469-4.0356 11.072-5.6181 22.4176-5.876 34.1536-.0886 4.0316.9852 7.6052 1.9988 11.1523 3.5443 12.4026 6.825 24.9825 11.7426 36.8587 4.026 9.7228 7.6909 19.5569 11.5271 29.3395 1.4265 3.6375 3.6668 6.9806 5.7387 10.3328 1.7624 2.8515 3.711 3.4903 6.1545.3391 2.0874-2.6918 4.0266-5.8428 8.0544-6.1471.4098-.031.9933-.4518 1.1437-.8314 3.3138-8.3623 12.3098-12.9357 14.6176-22.0117.4616-1.8155 1.4925-3.8008 4.002-3.5383 1.5447 1.0727.9133 2.5184.8339 3.764-.6202 9.7316-.2835 19.533-.3591 29.2255-.088 11.3017-1.0825 22.1973-4.6387 32.6612-6.7525 19.8692-9.8736 40.3643-11.9519 61.0752-1.3573 13.5263.8021 26.691 3.3576 40.0832 2.9144 15.2724 10.0434 28.3013 16.3603 42.0047 5.1369 11.1433 10.3486 22.2277 17.4968 32.098 6.2743 8.6634 10.2572 18.4484 14.2986 27.9667 3.5199 8.2899 6.6474 16.8458 10.7838 24.8547 3.3318 6.4508 5.1179 13.2345 7.0048 20.1003.6824 2.483.5452 4.5283-.9695 6.8689-3.2164-1.1155-5.0401-4.2207-8.3339-5.5649-7.5037-3.062-14.8396-3.5758-22.7742-2.4994-12.9822 1.7612-25.7005 5.4378-38.6755 6.4298-8.7816.6714-17.2348 2.5406-25.8604 3.6799-1.6345.2159-3.3385.1193-4.9877-.0522-1.4893-.1549-3.1177-.5094-3.4269-2.3374-.273-1.6129 1.0257-2.38 2.2215-2.9654 4.1604-2.0366 8.1072-4.5787 12.6959-5.6337 6.0176-1.3836 11.729-3.7412 17.2515-6.3212 7.7847-3.637 11.4912-10.3803 12.2939-18.8807 1.178-12.4748-1.839-24.3094-4.3969-36.3771-1.7109-8.0716-6.2174-14.0534-10.0548-20.7681-3.9074-6.8374-7.0957-14.1227-10.1568-21.3979-4.3016-10.2238-8.4071-20.5421-12.2003-30.9642-3.432-9.4295-7.3403-18.6946-10.6745-28.1126-3.5555-10.0432-6.0925-20.4534-10.4313-30.2716-5.4162-12.2563-10.4209-24.6761-16.3393-36.7319-4.4693-9.104-7.3151-18.9857-11.7449-28.1669-.7894-1.636-1.6354-3.2446-2.4551-4.8659M469.6543 317.8972c8.39 14.1221 13.4895 28.9002 12.2147 44.4442-.865 10.5476-.2057 21.1938-2.5011 31.8458-1.8815 8.7309-2.7027 17.9608-3.8825 26.9752-1.2776 9.7618-4.7921 19.0585-7.688 28.4588-2.0898 6.7833-4.9971 13.2939-6.3481 20.3318-1.1048 5.756-5.2954 10.2333-6.9313 15.8947-1.5073 5.2166-3.771 10.2569-6.1061 15.1831-4.6293 9.7661-10.0083 19.1529-15.0201 28.7229-6.5939 12.5913-14.4135 24.5366-20.6859 37.2027-6.1464 12.4119-16.1995 22.5746-20.1053 36.1259-2.336 8.1051-4.9887 16.1512-3.2527 24.8612.4439 2.2267-.3688 4.7671-2.5626 6.1193-2.2359 1.3782-3.6034-.6826-5.2375-1.7288-3.217-2.0596-6.4784-4.0559-9.7868-5.9654-5.0639-2.9227-10.6718-.6103-16.0224-1.4445-4.6333-.7224-9.5768-.8385-14.3476.5431-1.4364.4159-3.3862.6012-4.6631-1.8836 2.3842-3.46 6.4889-4.7592 10.1929-5.8949 5.9888-1.836 11.9503-3.8401 18.3137-4.5466 7.0061-.778 9.9972-6.4517 5.6327-13.4112-5.1793-8.2587-2.9615-14.817.9534-22.1072 4.7278-8.8042 10.6449-16.8743 14.6075-26.2074 2.7924-6.5769 7.3338-12.4714 9.7975-19.332 1.311-3.6506 2.4859-7.0571 5.4187-10.1215 3.2634-3.4099-.5833-11.2489-5.9974-14.4301-9.5844-5.6315-19.6604-10.2364-29.8818-14.519-7.5549-3.1654-15.1099-.8185-22.4221 1.133-2.6302.702-4.1094 3.9916-4.525 6.7978-1.8125 12.2376-1.643 24.354 2.1492 36.3377 3.3951 10.729 8.926 20.3994 13.9846 30.3285 1.7832 3.5001 3.2167 7.213 3.5341 11.6512-3.9589-.1315-6.1379-3.0043-8.7178-4.694-15.3378-10.046-31.5033-18.5154-48.618-24.964-13.0342-4.911-26.4736-7.7598-40.2192-2.0085-6.2748 2.6254-10.4298 9.9637-9.5392 16.8041 1.0155 7.8002 1.3733 15.6943 4.3148 23.1507 1.3085 3.3167 4.4885 5.8203 4.39 10.513-6.0014-2.2626-10.8513-5.6257-14.6699-10.0543-7.095-8.2286-12.807-17.6929-15.247-28.1323-1.7549-7.5086-2.1827-16.4204 3.7729-22.9028 4.1544-4.522 5.8346-10.0924 8.0261-15.2569 4.0705-9.5928 8.8076-18.7987 13.7956-27.8809 4.1966-7.6414 7.4596-15.6602 10.6439-23.7149 2.0438-5.1697 5.9665-9.0533 8.4341-13.9853 11.4566-22.8984 29.1469-41.3132 44.4475-61.4917 10.4185-13.7401 24.219-23.9743 34.6446-37.6276 5.8074-7.6054 14.3045-13.2548 21.9468-19.3367 9.7949-7.7951 18.8204-16.6978 30.4021-22.0507 6.3299-2.9256 12.3927-6.7925 19.0217-8.6016 6.1741-1.685 12.8942-4.087 19.4429-.9147 2.7951 1.3539 5.4811-.3859 8.2908.4744 6.7637 2.0709 12.0177 6.1519 16.6057 11.31M156.0385 566.6209c8.9596 4.5484 18.3728 5.8865 26.6066 9.9456 8.9313 4.4031 15.9496-1.6386 23.7984-2.8236 4.4575-.673 5.7857-6.0773 9.5396-8.3608 5.184-3.1534 8.6662-2.8803 11.641 2.5625 9.7431 17.8263 15.8433 36.2453 13.6834 57.3492-.9158 8.9475-2.5851 17.7351-3.9614 26.5333-1.2342 7.8894-5.1441 15.154-9.433 22.1178-6.1598 10.0015-15.2334 17.2442-23.4041 25.239-4.3108 4.218-10.3437 7.0721-16.2664 9.2032-7.3867 2.6579-14.5801 5.8566-22.6232 6.593-4.2106.3855-6.5217 6.4249-5.6752 11.2267 1.1365 6.4472 1.9419 12.965 2.8691 19.4444.9903 6.92 3.2472 13.7771 3.0921 20.7615-.2231 10.0463 2.2258 19.8435 1.3092 30.0584-.6432 7.1679-.6114 14.7201.0102 22.0659.2407 2.8449.3709 5.5456-.2025 8.3823-.6551 3.2413-.8013 6.5668.3128 9.8464 1.5447 4.5473.1181 9.3692-.4139 13.673-.77 6.2279 1.946 9.8811 5.4286 13.6026 3.85 4.114 7.9233 8.0186 11.1718 12.6493 3.8729 5.5207 9.8781 8.225 15.3542 11.5706 1.7383 1.062 3.3328 2.1151 4.9821 4.0536-5.6449 1.2371-10.0371-2.0811-14.5539-3.521-12.3883-3.9494-23.9666-9.8394-35.4153-16.1082-7.0195-3.8435-13.6439-8.1487-19.981-12.8595-9.8115-7.2936-18.9497-15.4971-28.8052-22.7261-11.8774-8.7123-19.4171-21.7097-31.0866-30.5631-1.0052-.7625-2.1977-2.1234-2.2084-3.2168-.0804-8.237-6.9346-13.3519-9.202-20.5061-2.1934-6.9209-4.4673-13.7777-5.4669-21.0941-1.3384-9.7948-.3959-19.6767-1.8862-29.4195-.1563-1.0216-.2324-1.9783.8245-3.0038 2.8012.0203 4.4969 1.9833 6.0763 4.0959 4.6335 6.1978 8.7928 12.8277 13.9988 18.4979 5.2453 5.7129 10.7484 12.3045 20.2707 8.7698.4069-13.573-3.4697-26.7729-3.7229-40.2375-.2981-15.8501-4.9556-31.002-6.437-46.6469-1.1632-12.2839-5.1365-24.2037-5.1006-36.6783.0033-1.1227-.742-1.8698-1.7904-2.1165-1.115-.2625-1.8335.484-2.5166 1.2636-8.84 10.089-15.2124 21.6685-19.4585 34.2732-1.8178 5.3961-.9266 11.5092-2.7145 17.1046-.4462 1.3965-.1478 3.0502-2.3694 3.643-1.1531-2.1403-1.7031-4.4312-1.9622-6.908-.7234-6.9162-.9695-13.9695-2.5822-20.6857-2.6412-11-.3359-21.7708.3467-32.6066.5892-9.3531 1.7772-18.6745 2.9011-27.9858.7979-6.6109.7569-13.3762 4.6965-19.3578 2.8629-4.3467 4.5388-9.2307 7.8921-13.5693 7.312-9.4606 18.2574-11.2171 27.89-15.9342 8.6477-4.2348 17.9589-5.2111 27.1311-6.6507 7.1242-1.1181 14.1577.3343 19.6669 5.7961 5.2956 5.2501 12.7292 7.6356 17.7457 13.2575M669.2644 259.9005c6.8618-5.4869 10.8935-12.4904 15.9652-18.583 2.5245-3.0325 5.6115-5.4492 7.8795-8.8395 6.0454-9.0367 12.7113-17.6623 19.2404-26.3689 1.9717-2.6295 5.0992-4.2687 8.0874-4.5066 4.4321-.3527 6.0014 4.0051 6.9792 7.128 2.7261 8.707 6.5261 16.991 9.434 25.6327 4.9726 14.7771 10.6 29.3345 14.9688 44.3261 5.2775 18.1098 12.8204 35.2995 20.2916 52.6039 5.4071 12.5236 12.4755 24.4946 15.7223 37.8608 1.3913 5.728 4.1131 10.6932 6.2854 15.9914 1.7397 4.243 3.236 8.6219 4.4077 13.0549 2.8229 10.68 5.6853 21.352 9.9956 31.535 1.5723 3.7145.9368 7.6969 2.7793 11.4751 4.4504 9.1263 8.5369 18.4913 11.9128 28.0624 3.0758 8.7203 8.3971 16.3785 10.5777 25.5748 2.0343 8.5793 5.7931 16.7501 8.7987 25.0987.9954 2.7646 2.8176 4.2115 5.8994 4.4844 3.7117.3287 6.9311 2.3234 9.8692 4.4163 2.738 1.9504 3.0152 5.2773 2.0647 8.1737-1.23 3.7479-4.6258 5.5997-8.2116 6.4883-15.3484 3.8038-30.3504 8.8718-46.0328 11.5531-5.6837.9717-11.0026 2.7007-16.9069 1.6629-4.682-.8229-12.0308-7.0195-12.9081-11.6322-1.6929-8.9008-2.4325-18.1454-5.4099-26.5985-3.7374-10.6107-5.125-22.0046-11.1712-31.9451-2.3427-3.8517-3.6337-8.705-4.831-13.3828-2.2462-8.7762-5.5216-17.2843-8.1884-25.9594-1.6421-5.3418-2.984-10.7775-4.3808-16.1916-.3211-1.2448.0322-2.7679-1.7588-3.1505-1.767-.3774-2.7837.6142-3.6524 1.958-2.4878 3.8484-1.7901 8.2431-1.0863 12.1311 2.2561 12.465 2.6397 25.0054 2.7391 37.5929.0662 8.3774.9482 16.75.168 25.1323-.6478 6.9611-2.2405 13.8878-2.581 20.7676-.3256 6.5806-1.3729 12.3852-4.2457 18.3574-4.8022 9.983-7.7134 12.2413-18.7722 10.623-2.7783-.4065-5.2184-.2952-7.7302.6583-4.5561 1.7296-9.4384 1.4207-14.0639 1.379-6.9944-.0631-13.8006 2.185-20.7949 1.2096-3.3007-.4604-6.1923 1.1264-9.1857 1.9909-3.7217 1.0749-7.1139.0372-8.5616-2.9231-1.6554-3.3848-2.5345-7.3535 1.1141-10.9585 2.7918-2.7584 6.7716-3.0753 9.4574-6.1811 4.273-4.9411 4.0262-11.3669 6.7104-16.8185 2.6762-5.4355 2.314-11.99 3.6544-17.7904 2.4845-10.752 1.1032-21.8354 4.1361-32.3531 1.0964-3.8019-1.1712-7.2551-.5044-10.842 1.6231-8.7298.1647-17.4906-.4297-26.0902-.558-8.0735-1.0546-16.301-3.138-24.4008-1.8298-7.1139-4.0466-14.2433-4.7487-21.7499-.4761-5.0902-3.0783-9.9807-4.7241-14.9624-3.305-10.0044-8.446-19.2055-13.8611-28.0781-2.8792-4.7176-5.5815-9.6539-8.4192-14.3891-2.8151-4.6977-5.3432-9.663-8.4162-14.2384-7.5996-11.3147-15.2692-22.5949-26.9453-30.3273-1.7795-1.1785-3.3625-2.7407-4.7855-4.3476-1.6812-1.8982-3.486-2.926-6.1015-2.4571-3.1846.5709-5.7976-.8758-6.9788-3.6032-1.1477-2.6497.5109-5.0222 2.3231-7.1465 3.0602-3.5876 7.1856-5.1423 11.4613-6.5673 4.4533-1.4842 9.218-2.3353 10.1149-8.5308.4554-3.1457 7.3055-4.7157 12.3664-3.748 12.5211 2.3941 24.2986 7.6254 36.9735 9.5159 2.6583.3964 4.8446.2415 7.1483-.777m-66.5859 33.1934c9.3692 5.0833 16.4977 11.0196 20.3231 21.0948 2.8294 7.4518 8.2789 13.9241 11.2383 21.4928 3.9638 10.1373 7.0633 20.6393 11.4738 30.5671 4.1155 9.2636 6.486 18.9178 8.0662 28.7295 1.4583 9.0552 2.7186 18.1548 3.3501 27.4027.704 10.3086 2.3776 20.6471 2.9769 31.0453.0568.9855.6529 2.0797.3795 2.9226-2.4027 7.4082.3289 15.2256-1.2753 22.4036-3.0512 13.6514-2.6649 27.8408-7.5512 41.2361-2.692 7.3796-3.4629 15.4673-6.7927 22.7652-.4403.9649-.4465 2.4539-.0271 3.4311 2.3967 5.5846-.8594 7.4819-5.2515 9.6791-7.2421 3.623-15.5588 4.2911-22.3556 9.394-4.7189 3.5427-9.9673 6.5997-14.2423 10.6204-8.8805 8.3523-17.7029 16.8702-24.1073 27.4348-3.4251 5.6502-6.8152 11.3505-9.2289 17.5133-4.5599 11.6423-14.5985 16.6951-25.3592 19.6453-18.2149 4.9937-36.689 2.9793-54.4025-2.5237-11.8013-3.6663-21.1722-11.5965-29.1913-21.467-12.9213-15.9045-20.7142-33.5446-20.5704-54.0369.0844-12.0293 2.3914-23.8324 5.5203-35.6335 2.5069-9.4553 5.7149-18.5834 9.0246-27.6862 3.037-8.3528 7.1608-16.3066 10.7003-24.4818 3.1537-7.2841 5.9213-14.7444 9.2965-21.9213 4.3616-9.2748 7.8442-18.9188 12.5143-28.0765 4.7741-9.3614 8.9121-18.9216 10.398-29.6824 1.0895-7.8894 4.2465-15.4808 5.6003-23.5111 1.025-6.0802.9871-12.7473 3.5451-18.1429 3.4849-7.3512 2.0529-15.4779 5.8264-22.8267 3.7979-7.3964 6.6885-15.3332 10.5415-22.8062 3.9681-7.6964 10.7328-11.8767 17.8806-15.9282 8.3546-4.7354 17.3167-5.6727 26.7075-6.6889 12.9486-1.4011 23.9423 2.7325 34.992 8.0356M165.8672 126.6509c7.9339 3.792 14.3289 8.2398 19.7713 14.3606 4.7099 5.2969 10.9752 8.9583 16.6972 13.1926 12.3543 9.1422 26.4124 15.9317 37.1758 27.3072 4.8949 5.1733 12.0324 7.5285 17.2194 12.5868 2.7078 2.6406 4.7518 5.841 7.8911 8.2019 2.1527 1.6189.0934 3.575-2.1073 4.1469-3.0779.7997-7.3807-1.3321-9.0678 2.4085-1.204 2.6693-.7122 6.1274-.8727 9.2388-.4521 8.7663-2.2602 17.2457-4.4035 25.7581-1.2234 4.859-.5549 10.2243-.5338 15.3608.0535 12.9394-1.7719 25.9179-3.7598 38.4373-2.5512 16.068-2.7606 32.2808-5.5095 48.2008-.9937 5.7551-1.1755 11.6272-2.8475 17.4033-1.4538 5.0225-.8998 10.7204-2.8089 15.8416 2.6432 2.0539 4.0831 1.1194 5.3619-1.1605 4.8353-8.62 10.3057-16.7439 17.1809-23.9618 3.2066-3.3664 5.2713-7.7912 8.1211-11.5325 7.5734-9.943 16.2454-19.3073 20.9816-30.9366 2.5088-6.1599 6.2483-11.6768 8.2323-18.1747 1.5343-5.0249 4.6214-9.7821 7.0399-14.6465 1.4167-2.8495 1.8166-5.6585 1.7055-8.6363-.4955-13.279-1.8001-26.3459-10.0109-37.5965-2.0962-2.8723-4.9233-4.9004-7.5608-7.1561-.8916-.7625-2.1201-1.3029-1.3944-2.7529.6895-1.3778 2.0698-1.0659 3.1123-.7439 1.5737.4862 3.1479 1.1486 4.5367 2.0283 14.839 9.3996 29.8803 18.507 44.3784 28.4086 11.6511 7.9571 24.7768 12.2686 37.5453 17.6708 13.613 5.7595 27.7402 8.9483 42.2096 10.8075 8.6959 1.1173 17.3695 2.4585 26.1935 2.898 8.2293.4098 16.4624-.0066 24.7063.4627 7.1343.4062 14.551-.8623 21.8472-.6129 13.7105.4687 27.313-.4699 40.8427-2.5705 2.41-.3742 4.0869.6608 5.037 2.3816 1.298 2.3507-1.1271 3.1516-2.5534 4.0539-7.2903 4.6119-13.2036 10.8775-19.6537 16.4744-2.6901 2.3342-4.4472 6.2063-4.7283 9.6134-.6477 7.8484-3.3858 15.1653-4.8078 22.7946-.4887 2.6218.7426 5.4227-.9232 7.794-.8154 1.1609-1.3225 2.9167-3.1975 2.7753-1.829-.138-2.3095-1.5616-2.6616-3.1323-.4716-2.1035-1.5032-4.1439-1.6315-6.2517-.7566-12.4364-8.1179-22.1864-13.3375-32.7521-2.7187-5.5032-9.1136-5.2515-14.0908-5.8166-11.2634-1.279-22.7512-1.571-33.8496.9743-10.3668 2.3775-20.8679 4.1139-30.4399 9.9398-8.2494 5.0209-16.8173 9.7824-25.6044 13.952-4.1728 1.9801-7.1356 5.4227-10.691 8.09-9.4549 7.0932-18.442 14.9782-25.7417 24.2851-9.6897 12.3541-21.3222 23.0683-30.4558 35.7604-7.6187 10.5871-16.3859 20.233-23.6015 31.219-6.0431 9.2009-12.2239 18.4655-18.81 27.3589-9.4545 12.7665-17.0393 26.6695-25.2382 40.2032-9.1944 15.177-15.6952 31.6635-23.0209 47.7381-3.9619 8.6934-8.7134 16.9526-13.2521 25.3091-3.2163 5.9218-11.835 9.271-19.8304 6.7238-16.349-5.2087-28.6094-15.8565-41.4883-26.2366-9.1042-7.3377-15.3012-17.5019-25.6067-23.6862-11.8713-7.1238-16.8151-6.8133-25.5269 3.9524-2.8271 3.4938-5.7532 7.0326-10.7715 10.4541 1.6585-9.9556 3.1573-18.5532 6.9384-26.4057 4.7012-9.7634 10.6295-18.9581 14.9888-28.8561 2.7638-6.2751 5.2556-12.629 10.1564-17.375 3.3926-3.2855 6.2402-6.5953 8.3603-10.8731 5.6294-11.359 10.2854-22.9138 10.6471-35.8167.0452-1.6103-.7659-4.204 2.1183-4.1796 2.2863.0192 3.7185 2.0435 3.8535 4.0194.4596 6.7237 2.8715 12.9196 5.2717 18.9981 4.7211 11.956 8.8684 24.316 17.6728 34.1462 1.3113 1.4642.5952 5.3873 3.6615 4.338 2.869-.9818 2.6514-4.4074 2.3817-6.9801-1.26-12.0227.0989-24.04.3176-36.0307.1468-8.05-1.0005-16.0536-.2933-24.0659.7814-8.8537 2.0366-17.6745 2.5473-26.5406.4862-8.4394.9243-16.9794.1383-25.3583-.4867-5.1885.639-10.1558.2178-15.3002-.6932-8.4665.5617-17.0148-.9984-25.5312-.5102-2.7852.9629-5.8755 1.0624-8.8419.2453-7.3133-.8406-14.5496-1.705-21.7921-.4549-3.8116-.7085-7.6428.5065-11.3532.3887-1.1874.9755-2.1945-.4529-2.942-1.4672-.7678-2.4843-.1329-3.3332 1.1552-1.7364 2.6344-4.0716 5.0096-5.2198 7.8692-2.7862 6.9392-7.6475 12.9564-9.9745 19.8502-3.6593 10.8408-12.6065 17.5708-18.2875 26.7407-2.3499 3.7932-3.836 8.0217-4.1333 12.1253-.5664 7.8182-3.68 15.4239-2.1235 23.3973.953 4.8822.2136 9.6117-.4288 14.7576-3.9305-1.2058-4.3037-4.5055-5.2925-6.7586-6.1272-13.9604-8.672-29.0437-8.7278-43.9275-.0427-11.4009-.624-22.8406-1.228-34.1289-.9248-17.283.7736-34.6316-2.0047-51.926-1.0263-6.3885.0105-13.5182.6553-20.2689.2697-2.8235 1.4252-5.5079 4.5133-6.6778 2.9621-1.1223 4.5197 1.0848 6.5273 2.5168 4.8736 3.4762 5.5611 8.7873 6.4779 14.0227.2837 1.6196.3999 3.2688.5833 4.9056.1399 1.2491.515 2.2855 2.0081 2.4072 1.2922.1054 2.1946-.3027 2.7547-1.5954 3.0861-7.1225 6.8309-13.9255 9.921-21.0642 5.273-12.1813 7.8388-25.192 12.2305-37.6355 3.065-8.6845 1.6908-17.3034-2.2386-25.4301-1.5056-3.114-4.969-3.9798-8.1078-3.6804-3.8097.3634-7.9967.2502-10.2025 4.7841-1.408 2.8939-1.8341 6.9423-7.3055 7.8054 1.6811-6.5281-1.0819-12.9162 3.4367-18.8193 4.0343-5.2705 7.3317-11.0253 13.1913-14.6893 5.446-3.4055 10.8515-2.5961 16.169-.1893 2.4233 1.0968 4.8312 2.1598 7.3529 2.9833M525.3265 878.5901c8.8704 2.9481 17.1313 5.1691 25.8558 4.6503.8253-.0491 1.6948.1075 2.4737-.0975 5.8342-1.5357 11.6059-1.3836 17.6646-.9881 14.711.9605 29.0663-1.1502 43.2125-6.0996 8.9736-3.1397 17.8054-6.8256 26.5211-10.3592 11.5952-4.7009 23.4744-10.5045 30.2684-22.3857.403-.7046.8717-1.5652 1.5362-1.8896 1.819-.8885 3.3596-3.6187 5.6397-2.0141 2.1258 1.4959.1659 3.6897-.1884 5.5133-2.4605 12.6615-10.716 22.8904-14.7862 34.815-2.9563 8.6611-9.7045 13.9004-15.2634 20.2982-.9452 1.0878-2.1277 1.6708-3.427 1.884-12.6622 2.0767-22.7031 9.8766-33.6863 15.5565-4.4578 2.3055-8.4757 5.5755-12.4031 8.7646-5.1519 4.1832-5.0974 7.0861-.7128 12.1422 3.1892 3.6775 6.396 7.1495 11.3067 8.601 1.7093.5053 3.2286 1.6931 4.7913 2.6405 1.1225.6808 2.4962 1.3453 1.9749 3.0377-.4613 1.4977-1.7875 1.8178-3.1807 1.9542-8.3272.8149-16.6166.0714-24.6905-1.718-16.0251-3.5516-32.1223-6.0889-48.5067-7.547-10.5821-.9417-21.186-2.6431-31.7926-3.2106-10.7025-.5725-21.2959-2.194-32.1394-1.9852-9.8768.1902-19.6737 1.0574-29.5085 1.5027-18.7689.8498-37.384 3.9086-56.2916 3.1006-14.6765-.6272-29.4012-.17-44.1042-.1245-16.8987.0522-32.9249-3.9775-48.4764-10.2415-3.2185-1.2964-5.0433-3.0317-7.5597-6.784 6.1219-2.6036 12.3759-4.3069 18.8517-5.1172 8.0617-1.0087 15.7168-13.2292 13.4438-21.787-.5604-2.1102-2.4861-3.1455-3.9892-4.3288-12.7839-10.0629-24.851-20.8915-36.1569-32.6016-3.191-3.3052-7.4662-5.537-10.0715-9.9243 3.9538-.9092 7.5562-.4377 10.9672 1.3596 1.686.8885 3.6497 2.0152 4.8794.132 1.3024-1.9945-.6052-3.3688-2.2292-4.2888-10.3552-5.8667-17.3558-15.0421-24.1436-24.4187-1.0064-1.3902-2.0861-2.5368-3.6856-3.2259-1.5986-.6886-3.4185-1.3675-4.563.165-.8849 1.1848-1.2817 2.7339-.8623 4.642 2.5579 11.6354 8.8097 21.7464 13.2406 32.5968 1.2671 3.1027 3.7088 5.806 5.9301 8.4223 5.0073 5.8978 11.2967 10.3763 17.8281 14.3194 4.5924 2.7724 8.8973 5.9953 14.2569 7.7526 6.4385 2.1111 7.2724 10.2007 2.3403 14.8838-8.1344 7.7236-17.6393 10.8288-28.841 9.7122-2.974-.2964-6.2351-.6974-9.3364.3956-1.2039.4243-2.7271.5622-3.9436.2336-10.6087-2.8654-21.5676-4.3889-30.7012-11.69-11.3185-9.0475-19.1364-20.3268-26.0911-32.8998-5.321-9.6195-8.3787-19.9837-10.6237-30.1312-2.4151-10.9155-3.5475-22.4895-1.5069-34.2414 2.0823-11.9918 3.4364-24.1839 5.7058-36.1593 1.575-8.3109 2.6895-16.7562 7.6474-24.4241 2.5324-3.9166 4.4696-8.9188 6.2348-13.6662 3.1412-8.4482 7.6213-16.3572 12.0334-24.2842 4.3161-7.7546 7.8373-16.0643 10.7328-24.4661 3.1197-9.0525 7.228-17.7078 9.9275-26.9478 2.0667-7.0739 3.4141-14.2085 4.0638-21.4325.3023-3.3624 2.3727-6.0792 1.8666-9.9459-.4302-3.287-1.0761-6.4117-2.152-9.4395-1.7206-4.842-.4288-10.6541-4.7758-14.676-.5677-.5252-.1826-1.6637.624-2.1515 1.2534-.7581 2.6359-.6163 3.8285.0582 4.0408 2.2852 7.9691 4.7731 12.0432 6.9949 14.4261 7.8671 29.6002 13.5961 46.2583 13.1778 5.893-.148 8.6537 4.3794 13.0728 6.2931 2.1969.9513.1745 3.4374-1.0996 4.99-5.7783 7.041-12.0849 13.8329-14.9426 22.6857-2.9708 9.2034-7.8555 17.5632-10.6732 26.9015-2.5164 8.3397-5.8467 16.424-7.1838 25.1147-1.3577 8.8244-2.4391 17.5375 2.2671 25.9152 1.67 2.9728 2.8154 6.3959 3.4462 9.7551.6895 3.6715 2.9692 5.1182 6.0627 5.3366 4.3739.3089 9.6824 2.8725 12.9578-.4785 3.9991-4.0914 8.7004-7.4123 12.1667-12.2565 7.3189-10.2285 11.5811-21.9018 17.0509-32.9898 2.9853-6.0516 4.2335-12.7019 5.239-19.4888.7095-4.7894 2.373-9.5563 2.583-14.4778.2355-5.5194.9151-11.1243-2.9371-16.0606-2.6261-3.3653.4651-5.2163 2.9124-5.7269 10.9263-2.2797 21.5908-2.3961 32.4641 1.8207 10.3223 4.0034 20.5106 8.3554 30.8459 12.33 4.4051 1.6942 8.4541 4.6452 11.1633 8.7848 1.411 2.156 3.2578 4.6003 1.1647 7.2632-1.9107 2.4308-4.5933 3.0878-7.6434 2.3651-3.3811-.8012-6.7429-1.6357-10.2759-1.7091-2.6562-.055-4.2414.9494-5.6463 3.1914-4.656 7.4301-6.5262 15.1058-7.1233 24.156-.6813 10.3275-1.3637 20.9369-4.2473 31.3641-2.0999 7.5931-4.1375 15.6823-4.4509 24.0919-.3042 8.1632-1.4437 16.8413-5.2222 24.4912-1.2902 2.612-1.147 5.1513-1.4008 7.7138-.6756 6.8216-4.9079 12.1808-7.159 18.3443-4.0155 10.9944-13.0908 18.852-18.2852 29.1741-2.3431 4.6558-1.0783 9.0105 4.1474 10.2113 11.6461 2.676 23.4888 4.0658 35.3799 5.0846 1.5978.1369 3.3799-.4627 5.1321 1.6132-23.8884 11.3396-48.5295 14.6548-74.5318 8.5918.1565 3.0888 1.2467 3.4092 2.4132 3.7007 12.2108 3.0503 24.3203 6.5813 36.7831 8.4804 5.0177.7646 10.0648 1.9829 15.2554.7971 1.5682-.3582 3.3544-.212 4.9569.1147 4.6803.9538 8.7859-.0244 13.3943-1.5476 9.0098-2.9779 18.5222-4.5494 27.718-6.9778 8.8285-2.3314 18.6373-2.8952 25.602-10.1956.42-.4402 1.1794-.685 1.8148-.7716 8.2248-1.1222 16.4086-3.6929 24.6408.3536 13.5593 6.6652 27.9629 11.263 42.0228 16.6965 2.3518.9089 4.5367 1.9633 6.6065 3.34M944.7823 718.8422c-4.1666-3.2594-5.1192-6.825-5.7646-11.4057-1.0897-7.7345-5.1003-14.6667-10.1218-20.8114-.7362-.9009-1.5976-1.7069-2.2738-2.6482-3.8758-5.3954-10.5288-5.7818-15.066-.8532-1.6995 1.846-2.9991 3.8793-3.8353 6.2961-3.7566 10.8574-8.1168 21.5385-11.2105 32.577-1.2605 4.4974-.7746 9.633-1.4167 14.4852-.3608 2.7268 3.2081 2.2512 4.7174 1.6448 6.977-2.8033 14.4133-4.4426 21.6401-4.8763 8.2802-.497 16.0266-4.943 24.5417-2.8663 5.6799 1.3853 8.8425 4.7921 9.6944 10.4564.4919 3.2711 1.3145 6.4958 2.064 9.7237.5278 2.2729 1.661 2.7599 4.0189 1.8442 6.5597-2.5474 7.9273-1.4997 7.863 5.609-.0978 10.8076-4.5393 20.2004-10.3273 28.8756-5.4495 8.1677-9.8555 17.1466-17.9946 23.3764-14.9747 11.4619-29.9277 22.9306-47.3354 30.5664-2.7555 1.2088-5.9161 1.7726-9.2618 1.4237-.4082-3.0084 1.9639-4.2572 3.1834-6.0748 8.3567-12.4557 18.408-23.8115 25.4284-37.0916 3.8964-7.3705 6.3173-15.5992 7.006-24.1091.2894-3.5757-1.2141-4.2597-4.8255-3.9721-9.3442.744-17.7211 5.4998-27.0979 5.9892-2.6085.1363-4.3047 1.8613-4.7894 4.8618-1.1817 7.3145-3.03 14.5885-6.4537 21.109-2.8538 5.4353-3.2166 11.3854-5.1474 16.9828-3.6784 10.664-6.9463 21.4519-10.9855 32.0166-3.0411 7.9543-8.6873 13.474-14.1885 19.4552-11.0782 12.045-25.6956 18.6413-40.0076 25.0551-9.2108 4.1276-19.0386 8.5866-29.8154 8.1647-.6334-.0248-1.2636-.1346-1.712-.1844-1.2144-1.6792 1.3266-2.4406.337-4.1784-.4746-.7362-1.6182-.7775-2.416-.2654-3.3432 2.1451-6.7057 4.2941-9.834 6.7331-7.2431 5.6471-15.3319 9.529-23.741 13.186-7.2267 3.1428-14.1663 7.0162-21.5644 9.8922-11.1368 4.3294-22.6919 7.3889-34.219 10.2445-9.9634 2.4681-20.3771 3.1435-30.6059 4.5041-5.8874.783-11.4961-1.3033-17.2447-1.9727-6.3171-.7356-12.8067-.173-18.8622-2.8959-1.8439-.829-3.6855-1.4866-5.0527-3.0318-1.4274-1.6134-1.3748-3.6867.7049-3.8503 5.8535-.4607 9.2385-4.9832 13.6171-7.7219 6.0411-3.7784 12.9887-4.9163 19.4027-7.4923 7.2365-2.9063 10.6352-8.8084 14.353-14.375 6.2288-9.3264 10.4879-19.8916 16.3781-29.3965 4.7907-7.731 8.6384-15.9973 11.903-24.1602 3.298-8.2464 6.9755-16.6097 9.0203-25.4447 1.3578-5.8662 3.5599-11.532 5.0779-17.3671 2.0035-7.702 4.9228-15.158 6.1637-23.0632 1.7634-11.2326 5.2525-22.0483 8.0436-33.0313 3.9437-15.5185 5.8624-31.4206 9.0135-47.0896 1.1611-5.7739.7843-11.7001.496-17.5586-.1358-2.7607-.9989-4.4486-4.7054-3.8387-8.1478 1.3407-16.2551 2.7758-24.0895 5.3827-3.8465 1.28-7.5991 3.1615-10.5233 5.9401-4.6319 4.4012-11.8025 5.3475-15.0561 11.6089-2.2672 4.3633-5.0733 8.4439-7.5725 12.6899-2.4338 4.1349-4.5194 8.5755-9.9 10.2326-1.6637-2.3087-1.6547-4.6746-1.7881-7.3994-.3372-6.8859-.1118-13.7738-.4257-20.6291-.3878-8.4664.7319-16.8742 3.5132-24.4577 3.9124-10.6676 5.0484-21.8982 8.5808-32.5569 3.1573-9.5265 6.206-19.0908 9.5141-28.5645 1.3868-3.9715 5.1402-6.0683 8.3576-8.2085 8.8773-5.9051 14.8407-14.4976 21.7369-22.2713 6.2658-7.0632 11.2274-15.1561 17.9175-21.8852 4.5466-4.573 10.7713-3.82 16.4451-7.0371-.654 3.2691-1.9145 4.7328-3.5485 5.9258-9.4703 6.9144-10.1078 23.3402-.1753 29.6071 5.6712 3.5783 13.0958 4.9025 20.1752 3.0863 5.2688-1.3517 10.7323-3.1188 15.8597-3.53 5.5531-.4453 11.0686-.9897 16.5995-1.8155 12.7501-1.9039 25.6735-2.0804 38.4604-3.8888 12.9796-1.8357 26.1102-2.5778 39.1354-4.1282 8.0174-.9543 16.0184-1.7245 23.5511-5.5816 4.804-2.46 10.549-2.5309 16.6419.8922-4.6933 5.0567-8.9739 9.6899-13.2887 14.2912-.558.595-1.459.9045-1.9218 1.5474-9.3464 12.9807-21.5852 23.6811-29.7395 37.5757-1.7261 2.9414-2.5586 6.3937-3.97 9.5356-7.0855 15.7735-14.3863 31.4529-21.2615 47.317-2.4137 5.5697-2.8787 11.9042-6.0765 17.2448-1.1368 1.8987-1.7975 5.0453-4.851 3.7682-2.3593-.9866-2.5754-3.4777-1.9263-6.0496.4339-1.7193.8468-3.983.0979-5.3713-3.8862-7.2044-2.905-15.0852-3.6995-22.7185-.0974-.9353.1152-2.0493-1.4428-2.7551-2.2583 1.2916-2.6689 3.7722-3.0951 6.1048-1.1181 6.121-2.5969 12.1926-2.7878 18.4556-.2299 7.5497-3.7927 14.2945-5.133 21.6585-3.788 20.813-8.9473 41.384-11.9845 62.3381-1.0354 7.1428-4.0717 13.9622-3.4277 21.3812.0736.849-.697 1.807-1.172 2.6612-1.3232 2.3789-3.4842 4.5558-1.365 7.6055.2818.4055.0495 1.3491-.2104 1.9232-3.849 8.5023-3.9486 17.9752-7.028 26.7456-1.7159 4.8872-3.3813 9.9594-4.4132 15.1909-.9111 4.6181-3.4417 8.9031-5.1077 13.3907-1.1507 3.0996-1.9937 6.3121-3.069 9.4416-1.7925 5.2164-1.0284 6.4597 4.5852 6.3687 2.7948-.0453 5.6087-.5675 8.3614-1.1308 3.403-.6963 3.9229.6029 2.8444 3.4823-1.3135 3.5071-3.8182 6.2046-6.0197 9.1104-.7751 1.0231-2.1228 1.7229-1.7787 3.4795 1.6882 1.8449 3.3116.8672 4.5348-.5532 4.9614-5.7616 10.4231-11.2565 11.7589-19.2337.342-2.0423 1.2183-3.8209 2.5178-5.3597 7.4424-8.8126 9.2667-20.236 13.7813-30.3829 1.9555-4.3952.1846-10.2976 1.2977-15.2475 2.9259-13.012 7.0687-25.7296 9.7678-38.8163 2.452-11.8882 3.002-23.9948 4.5806-35.9665.8463-6.4182.395-13.7145 5.5092-19.1312.3901-.4133.4023-1.2498.4593-1.9011.7404-8.4638 4.2912-15.9787 7.1393-23.8418 2.1977-6.0673 4.2734-12.4146 5.9234-18.7951 2.2991-8.8919 5.4457-17.5905 8.0645-26.3517 3.2591-10.9034 10.4171-19.7319 13.6657-30.4538 1.203-3.9706 5.0887-6.2301 7.4534-9.5737 4.3925-6.2104 9.1954-12.7689 15.3445-16.9527 9.8215-6.6824 15.4589-17.2666 25.2559-24.0769 5.2896-3.677 9.5614-8.3799 16.1936-10.262 2.9033-.8239 4.9885-.6501 6.7827 1.0787 8.6294 8.3144 16.1098 17.1925 19.0294 29.485 2.2351 9.4103 6.4787 18.3141 8.7219 27.8075 1.7041 7.2116 3.2431 14.5811 4.2008 21.7876.8679 6.5316 2.373 13.3169.8945 20.4295-1.3688 6.5842 1.3284 13.5323 2.1215 20.3259.9781 8.3773 1.7189 16.9436-.2175 25.2662-.9431 4.0535-.9484 8.254-2.3208 12.194-.8831 2.5358-1.9266 4.9393-5.52 5.1405l-18.2612-16.0654"/>
</svg>